<svg xmlns="http://www.w3.org/2000/svg" version="1.1" xmlns:xlink="http://www.w3.org/1999/xlink" width="64" height="64"><svg xmlns="http://www.w3.org/2000/svg" version="1.1" xmlns:xlink="http://www.w3.org/1999/xlink" width="64" height="64"><svg width="64" height="64" viewBox="0 0 64 64" fill="none" xmlns="http://www.w3.org/2000/svg">
  <circle cx="32" cy="32" r="30" stroke="#1B416B" stroke-width="4"></circle>
  
  <path d="M18 20C18 18.8954 18.8954 18 20 18H44C45.1046 18 46 18.8954 46 20V44C46 45.1046 45.1046 46 44 46H22C19.7909 46 18 44.2091 18 42V20Z" fill="#1B416B"></path>
  
  <path d="M42 18V46" stroke="white" stroke-width="1.5" stroke-opacity="0.3"></path>
  
  <rect x="22" y="24" width="20" height="3" rx="1.5" fill="white"></rect>
  <rect x="22" y="30" width="10" height="2" rx="1" fill="white" fill-opacity="0.6"></rect>
  <rect x="22" y="34" width="10" height="2" rx="1" fill="white" fill-opacity="0.6"></rect>
  <rect x="22" y="38" width="10" height="2" rx="1" fill="white" fill-opacity="0.6"></rect>
  
  <circle cx="42" cy="40" r="10" fill="#F28C33" stroke="#1B416B" stroke-width="2"></circle>
  <circle cx="39" cy="43" r="1.5" fill="white"></circle>
  <path d="M38 37.5C40.4853 37.5 42.5 39.5147 42.5 42" stroke="white" stroke-width="1.5" stroke-linecap="round"></path>
  <path d="M38 34C42.4183 34 46 37.5817 46 42" stroke="white" stroke-width="1.5" stroke-linecap="round"></path>
</svg></svg><style>@media (prefers-color-scheme: light) { :root { filter: none; } }
@media (prefers-color-scheme: dark) { :root { filter: none; } }
</style></svg>