<svg width="500" height="500" viewBox="0 0 500 500" fill="none" xmlns="http://www.w3.org/2000/svg">
<path d="M187.5 43.75H37.5C27.1875 43.75 18.75 52.1875 18.75 62.5V212.5C18.75 222.813 27.1875 231.25 37.5 231.25H187.5C197.813 231.25 206.25 222.813 206.25 212.5V62.5C206.25 52.1875 197.813 43.75 187.5 43.75ZM103.125 128.125H178.125V146.875H103.125V128.125ZM103.125 90.625H178.125V109.375H103.125V90.625ZM103.125 165.625H150V184.375H103.125V165.625ZM46.875 90.625H84.375V128.125H46.875V90.625ZM46.875 146.875H84.375V184.375H46.875V146.875Z" fill="#4285F4"/>
<path d="M112.5 249.75L18.75 343.5L112.5 437.25L206.25 343.5L112.5 249.75ZM112.5 404.438L51.5625 343.5L112.5 282.562L173.438 343.5L112.5 404.438Z" fill="#2BB24C"/>
<path d="M140.625 315.375H84.375V371.625H140.625V315.375Z" fill="#2BB24C"/>
<path d="M362 278.667C310.48 278.667 268.667 283.147 268.667 330.467V370.413C268.667 417.92 305.253 465.333 362 465.333C418.747 465.333 455.333 417.92 455.333 370.413V330.467C455.333 283.147 413.52 278.667 362 278.667ZM410.533 354.36L372.267 392.627C366.667 398.227 357.333 398.227 351.733 392.627L313.467 354.36C309.733 350.627 309.733 344.093 313.467 340.36C317.2 336.627 323.733 336.627 327.467 340.36L362 374.893L396.533 340.36C400.267 336.627 406.8 336.627 410.533 340.36C414.267 344.093 414.267 350.627 410.533 354.36Z" fill="#EF4056"/>
<g clip-path="url(#clip0_12_18)">
<path d="M225 44H360V89H225V44ZM225 89H405V134H225V89ZM225 134H450V179H225V134ZM270 179H450V224H270V179ZM315 224H450V269H315V224Z" fill="#E12828"/>
</g>
<defs>
<clipPath id="clip0_12_18">
<rect width="225" height="225" fill="white" transform="translate(225 44)"/>
</clipPath>
</defs>
</svg>
